<?xml version="1.0" encoding="utf-8" standalone="no"?>
<!DOCTYPE svg PUBLIC "-//W3C//DTD SVG 1.1//EN"
  "http://www.w3.org/Graphics/SVG/1.1/DTD/svg11.dtd">
<svg xmlns:xlink="http://www.w3.org/1999/xlink" width="576pt" height="432pt" viewBox="0 0 576 432" xmlns="http://www.w3.org/2000/svg" version="1.1">
 <metadata>
  <rdf:RDF xmlns:dc="http://purl.org/dc/elements/1.1/" xmlns:cc="http://creativecommons.org/ns#" xmlns:rdf="http://www.w3.org/1999/02/22-rdf-syntax-ns#">
   <cc:Work>
    <dc:type rdf:resource="http://purl.org/dc/dcmitype/StillImage"/>
    <dc:date>2024-09-29T05:19:10.377397</dc:date>
    <dc:format>image/svg+xml</dc:format>
    <dc:creator>
     <cc:Agent>
      <dc:title>Matplotlib v3.7.1, https://matplotlib.org/</dc:title>
     </cc:Agent>
    </dc:creator>
   </cc:Work>
  </rdf:RDF>
 </metadata>
 <defs>
  <style type="text/css">*{stroke-linejoin: round; stroke-linecap: butt}</style>
 </defs>
 <g id="figure_1">
  <g id="patch_1">
   <path d="M 0 432 
L 576 432 
L 576 0 
L 0 0 
z
" style="fill: #ffffff"/>
  </g>
  <g id="axes_1">
   <g id="patch_2">
    <path d="M 461.52 218.16 
C 461.52 196.319058 457.217811 174.690491 448.859644 154.512092 
C 440.501477 134.333692 428.249878 115.997879 412.806 100.554 
C 397.362121 85.110122 379.026308 72.858523 358.847908 64.500356 
C 338.669509 56.142189 317.040942 51.84 295.2 51.84 
C 273.359058 51.84 251.730491 56.142189 231.552092 64.500356 
C 211.373692 72.858523 193.037879 85.110122 177.594 100.554 
C 162.150122 115.997879 149.898523 134.333692 141.540356 154.512092 
C 133.182189 174.690491 128.88 196.319058 128.88 218.16 
C 128.88 240.000942 133.182189 261.629509 141.540356 281.807908 
C 149.898523 301.986308 162.150122 320.322121 177.594 335.766 
C 193.037879 351.209878 211.373692 363.461477 231.552092 371.819644 
C 251.730491 380.177811 273.359058 384.48 295.2 384.48 
C 317.040942 384.48 338.669509 380.177811 358.847908 371.819644 
C 379.026308 363.461477 397.362121 351.209878 412.806 335.766 
C 428.249878 320.322121 440.501477 301.986308 448.859644 281.807908 
C 457.217811 261.629509 461.52 240.000942 461.52 218.16 
M 295.2 218.16 
C 295.2 218.16 295.2 218.16 295.2 218.16 
C 295.2 218.16 295.2 218.16 295.2 218.16 
C 295.2 218.16 295.2 218.16 295.2 218.16 
C 295.2 218.16 295.2 218.16 295.2 218.16 
C 295.2 218.16 295.2 218.16 295.2 218.16 
C 295.2 218.16 295.2 218.16 295.2 218.16 
C 295.2 218.16 295.2 218.16 295.2 218.16 
C 295.2 218.16 295.2 218.16 295.2 218.16 
C 295.2 218.16 295.2 218.16 295.2 218.16 
C 295.2 218.16 295.2 218.16 295.2 218.16 
C 295.2 218.16 295.2 218.16 295.2 218.16 
C 295.2 218.16 295.2 218.16 295.2 218.16 
C 295.2 218.16 295.2 218.16 295.2 218.16 
C 295.2 218.16 295.2 218.16 295.2 218.16 
C 295.2 218.16 295.2 218.16 295.2 218.16 
C 295.2 218.16 295.2 218.16 295.2 218.16 
z
" style="fill: #ffffff"/>
   </g>
   <g id="patch_3">
    <path d="M 359.081481 218.16 
L 392.317712 121.042288 
L 295.2 94.96 
L 220.775353 143.735353 
L 201.202963 218.16 
L 219.699852 293.660148 
L 295.2 377.863704 
L 374.571951 297.531951 
z
" clip-path="url(#p39f901e687)" style="fill: #1f77b4; opacity: 0.25"/>
   </g>
   <g id="patch_4">
    <path d="M 349.955556 218.16 
L 364.892444 148.467556 
L 295.2 94.047407 
L 210.020346 132.980346 
L 185.688889 218.16 
L 235.187062 278.172938 
L 295.2 364.174815 
L 394.576263 317.536263 
z
" clip-path="url(#p39f901e687)" style="fill: #ff7f0e; opacity: 0.25"/>
   </g>
   <g id="patch_5">
    <path d="M 368.207407 218.16 
L 406.191671 107.168329 
L 295.2 100.435556 
L 217.33375 140.29375 
L 195.727407 218.16 
L 235.187062 278.172938 
L 295.2 350.02963 
L 369.732197 292.692197 
z
" clip-path="url(#p39f901e687)" style="fill: #2ca02c; opacity: 0.25"/>
   </g>
   <g id="patch_6">
    <path d="M 322.577778 218.16 
L 386.832658 126.527342 
L 295.2 95.872593 
L 215.612949 138.572949 
L 205.765926 218.16 
L 194.533136 318.826864 
L 295.2 345.922963 
L 369.732197 292.692197 
z
" clip-path="url(#p39f901e687)" style="fill: #d62728; opacity: 0.25"/>
   </g>
   <g id="matplotlib.axis_1">
    <g id="xtick_1">
     <g id="line2d_1">
      <path d="M 295.2 218.16 
L 461.52 218.16 
" clip-path="url(#p39f901e687)" style="fill: none; stroke: #b0b0b0; stroke-width: 0.8; stroke-linecap: square"/>
     </g>
     <g id="text_1">
      <!-- openbookqa -->
      <g transform="translate(444.933437 221.47125) scale(0.12 -0.12)">
       <defs>
        <path id="DejaVuSans-6f" d="M 1959 3097 
Q 1497 3097 1228 2736 
Q 959 2375 959 1747 
Q 959 1119 1226 758 
Q 1494 397 1959 397 
Q 2419 397 2687 759 
Q 2956 1122 2956 1747 
Q 2956 2369 2687 2733 
Q 2419 3097 1959 3097 
z
M 1959 3584 
Q 2709 3584 3137 3096 
Q 3566 2609 3566 1747 
Q 3566 888 3137 398 
Q 2709 -91 1959 -91 
Q 1206 -91 779 398 
Q 353 888 353 1747 
Q 353 2609 779 3096 
Q 1206 3584 1959 3584 
z
" transform="scale(0.015625)"/>
        <path id="DejaVuSans-70" d="M 1159 525 
L 1159 -1331 
L 581 -1331 
L 581 3500 
L 1159 3500 
L 1159 2969 
Q 1341 3281 1617 3432 
Q 1894 3584 2278 3584 
Q 2916 3584 3314 3078 
Q 3713 2572 3713 1747 
Q 3713 922 3314 415 
Q 2916 -91 2278 -91 
Q 1894 -91 1617 61 
Q 1341 213 1159 525 
z
M 3116 1747 
Q 3116 2381 2855 2742 
Q 2594 3103 2138 3103 
Q 1681 3103 1420 2742 
Q 1159 2381 1159 1747 
Q 1159 1113 1420 752 
Q 1681 391 2138 391 
Q 2594 391 2855 752 
Q 3116 1113 3116 1747 
z
" transform="scale(0.015625)"/>
        <path id="DejaVuSans-65" d="M 3597 1894 
L 3597 1613 
L 953 1613 
Q 991 1019 1311 708 
Q 1631 397 2203 397 
Q 2534 397 2845 478 
Q 3156 559 3463 722 
L 3463 178 
Q 3153 47 2828 -22 
Q 2503 -91 2169 -91 
Q 1331 -91 842 396 
Q 353 884 353 1716 
Q 353 2575 817 3079 
Q 1281 3584 2069 3584 
Q 2775 3584 3186 3129 
Q 3597 2675 3597 1894 
z
M 3022 2063 
Q 3016 2534 2758 2815 
Q 2500 3097 2075 3097 
Q 1594 3097 1305 2825 
Q 1016 2553 972 2059 
L 3022 2063 
z
" transform="scale(0.015625)"/>
        <path id="DejaVuSans-6e" d="M 3513 2113 
L 3513 0 
L 2938 0 
L 2938 2094 
Q 2938 2591 2744 2837 
Q 2550 3084 2163 3084 
Q 1697 3084 1428 2787 
Q 1159 2491 1159 1978 
L 1159 0 
L 581 0 
L 581 3500 
L 1159 3500 
L 1159 2956 
Q 1366 3272 1645 3428 
Q 1925 3584 2291 3584 
Q 2894 3584 3203 3211 
Q 3513 2838 3513 2113 
z
" transform="scale(0.015625)"/>
        <path id="DejaVuSans-62" d="M 3116 1747 
Q 3116 2381 2855 2742 
Q 2594 3103 2138 3103 
Q 1681 3103 1420 2742 
Q 1159 2381 1159 1747 
Q 1159 1113 1420 752 
Q 1681 391 2138 391 
Q 2594 391 2855 752 
Q 3116 1113 3116 1747 
z
M 1159 2969 
Q 1341 3281 1617 3432 
Q 1894 3584 2278 3584 
Q 2916 3584 3314 3078 
Q 3713 2572 3713 1747 
Q 3713 922 3314 415 
Q 2916 -91 2278 -91 
Q 1894 -91 1617 61 
Q 1341 213 1159 525 
L 1159 0 
L 581 0 
L 581 4863 
L 1159 4863 
L 1159 2969 
z
" transform="scale(0.015625)"/>
        <path id="DejaVuSans-6b" d="M 581 4863 
L 1159 4863 
L 1159 1991 
L 2875 3500 
L 3609 3500 
L 1753 1863 
L 3688 0 
L 2938 0 
L 1159 1709 
L 1159 0 
L 581 0 
L 581 4863 
z
" transform="scale(0.015625)"/>
        <path id="DejaVuSans-71" d="M 947 1747 
Q 947 1113 1208 752 
Q 1469 391 1925 391 
Q 2381 391 2643 752 
Q 2906 1113 2906 1747 
Q 2906 2381 2643 2742 
Q 2381 3103 1925 3103 
Q 1469 3103 1208 2742 
Q 947 2381 947 1747 
z
M 2906 525 
Q 2725 213 2448 61 
Q 2172 -91 1784 -91 
Q 1150 -91 751 415 
Q 353 922 353 1747 
Q 353 2572 751 3078 
Q 1150 3584 1784 3584 
Q 2172 3584 2448 3432 
Q 2725 3281 2906 2969 
L 2906 3500 
L 3481 3500 
L 3481 -1331 
L 2906 -1331 
L 2906 525 
z
" transform="scale(0.015625)"/>
        <path id="DejaVuSans-61" d="M 2194 1759 
Q 1497 1759 1228 1600 
Q 959 1441 959 1056 
Q 959 750 1161 570 
Q 1363 391 1709 391 
Q 2188 391 2477 730 
Q 2766 1069 2766 1631 
L 2766 1759 
L 2194 1759 
z
M 3341 1997 
L 3341 0 
L 2766 0 
L 2766 531 
Q 2569 213 2275 61 
Q 1981 -91 1556 -91 
Q 1019 -91 701 211 
Q 384 513 384 1019 
Q 384 1609 779 1909 
Q 1175 2209 1959 2209 
L 2766 2209 
L 2766 2266 
Q 2766 2663 2505 2880 
Q 2244 3097 1772 3097 
Q 1472 3097 1187 3025 
Q 903 2953 641 2809 
L 641 3341 
Q 956 3463 1253 3523 
Q 1550 3584 1831 3584 
Q 2591 3584 2966 3190 
Q 3341 2797 3341 1997 
z
" transform="scale(0.015625)"/>
       </defs>
       <use xlink:href="#DejaVuSans-6f"/>
       <use xlink:href="#DejaVuSans-70" x="61.181641"/>
       <use xlink:href="#DejaVuSans-65" x="124.658203"/>
       <use xlink:href="#DejaVuSans-6e" x="186.181641"/>
       <use xlink:href="#DejaVuSans-62" x="249.560547"/>
       <use xlink:href="#DejaVuSans-6f" x="313.037109"/>
       <use xlink:href="#DejaVuSans-6f" x="374.21875"/>
       <use xlink:href="#DejaVuSans-6b" x="435.400391"/>
       <use xlink:href="#DejaVuSans-71" x="493.310547"/>
       <use xlink:href="#DejaVuSans-61" x="556.787109"/>
      </g>
     </g>
    </g>
    <g id="xtick_2">
     <g id="line2d_2">
      <path d="M 295.2 218.16 
L 412.806 100.554 
" clip-path="url(#p39f901e687)" style="fill: none; stroke: #b0b0b0; stroke-width: 0.8; stroke-linecap: square"/>
     </g>
     <g id="text_2">
      <!-- arc_challenge -->
      <g transform="translate(385.886689 89.202686) scale(0.12 -0.12)">
       <defs>
        <path id="DejaVuSans-72" d="M 2631 2963 
Q 2534 3019 2420 3045 
Q 2306 3072 2169 3072 
Q 1681 3072 1420 2755 
Q 1159 2438 1159 1844 
L 1159 0 
L 581 0 
L 581 3500 
L 1159 3500 
L 1159 2956 
Q 1341 3275 1631 3429 
Q 1922 3584 2338 3584 
Q 2397 3584 2469 3576 
Q 2541 3569 2628 3553 
L 2631 2963 
z
" transform="scale(0.015625)"/>
        <path id="DejaVuSans-63" d="M 3122 3366 
L 3122 2828 
Q 2878 2963 2633 3030 
Q 2388 3097 2138 3097 
Q 1578 3097 1268 2742 
Q 959 2388 959 1747 
Q 959 1106 1268 751 
Q 1578 397 2138 397 
Q 2388 397 2633 464 
Q 2878 531 3122 666 
L 3122 134 
Q 2881 22 2623 -34 
Q 2366 -91 2075 -91 
Q 1284 -91 818 406 
Q 353 903 353 1747 
Q 353 2603 823 3093 
Q 1294 3584 2113 3584 
Q 2378 3584 2631 3529 
Q 2884 3475 3122 3366 
z
" transform="scale(0.015625)"/>
        <path id="DejaVuSans-5f" d="M 3263 -1063 
L 3263 -1509 
L -63 -1509 
L -63 -1063 
L 3263 -1063 
z
" transform="scale(0.015625)"/>
        <path id="DejaVuSans-68" d="M 3513 2113 
L 3513 0 
L 2938 0 
L 2938 2094 
Q 2938 2591 2744 2837 
Q 2550 3084 2163 3084 
Q 1697 3084 1428 2787 
Q 1159 2491 1159 1978 
L 1159 0 
L 581 0 
L 581 4863 
L 1159 4863 
L 1159 2956 
Q 1366 3272 1645 3428 
Q 1925 3584 2291 3584 
Q 2894 3584 3203 3211 
Q 3513 2838 3513 2113 
z
" transform="scale(0.015625)"/>
        <path id="DejaVuSans-6c" d="M 603 4863 
L 1178 4863 
L 1178 0 
L 603 0 
L 603 4863 
z
" transform="scale(0.015625)"/>
        <path id="DejaVuSans-67" d="M 2906 1791 
Q 2906 2416 2648 2759 
Q 2391 3103 1925 3103 
Q 1463 3103 1205 2759 
Q 947 2416 947 1791 
Q 947 1169 1205 825 
Q 1463 481 1925 481 
Q 2391 481 2648 825 
Q 2906 1169 2906 1791 
z
M 3481 434 
Q 3481 -459 3084 -895 
Q 2688 -1331 1869 -1331 
Q 1566 -1331 1297 -1286 
Q 1028 -1241 775 -1147 
L 775 -588 
Q 1028 -725 1275 -790 
Q 1522 -856 1778 -856 
Q 2344 -856 2625 -561 
Q 2906 -266 2906 331 
L 2906 616 
Q 2728 306 2450 153 
Q 2172 0 1784 0 
Q 1141 0 747 490 
Q 353 981 353 1791 
Q 353 2603 747 3093 
Q 1141 3584 1784 3584 
Q 2172 3584 2450 3431 
Q 2728 3278 2906 2969 
L 2906 3500 
L 3481 3500 
L 3481 434 
z
" transform="scale(0.015625)"/>
       </defs>
       <use xlink:href="#DejaVuSans-61"/>
       <use xlink:href="#DejaVuSans-72" x="61.279297"/>
       <use xlink:href="#DejaVuSans-63" x="100.142578"/>
       <use xlink:href="#DejaVuSans-5f" x="155.123047"/>
       <use xlink:href="#DejaVuSans-63" x="205.123047"/>
       <use xlink:href="#DejaVuSans-68" x="260.103516"/>
       <use xlink:href="#DejaVuSans-61" x="323.482422"/>
       <use xlink:href="#DejaVuSans-6c" x="384.761719"/>
       <use xlink:href="#DejaVuSans-6c" x="412.544922"/>
       <use xlink:href="#DejaVuSans-65" x="440.328125"/>
       <use xlink:href="#DejaVuSans-6e" x="501.851562"/>
       <use xlink:href="#DejaVuSans-67" x="565.230469"/>
       <use xlink:href="#DejaVuSans-65" x="628.707031"/>
      </g>
     </g>
    </g>
    <g id="xtick_3">
     <g id="line2d_3">
      <path d="M 295.2 218.16 
L 295.2 51.84 
" clip-path="url(#p39f901e687)" style="fill: none; stroke: #b0b0b0; stroke-width: 0.8; stroke-linecap: square"/>
     </g>
     <g id="text_3">
      <!-- hellaswag -->
      <g transform="translate(265.176562 34.65125) scale(0.12 -0.12)">
       <defs>
        <path id="DejaVuSans-73" d="M 2834 3397 
L 2834 2853 
Q 2591 2978 2328 3040 
Q 2066 3103 1784 3103 
Q 1356 3103 1142 2972 
Q 928 2841 928 2578 
Q 928 2378 1081 2264 
Q 1234 2150 1697 2047 
L 1894 2003 
Q 2506 1872 2764 1633 
Q 3022 1394 3022 966 
Q 3022 478 2636 193 
Q 2250 -91 1575 -91 
Q 1294 -91 989 -36 
Q 684 19 347 128 
L 347 722 
Q 666 556 975 473 
Q 1284 391 1588 391 
Q 1994 391 2212 530 
Q 2431 669 2431 922 
Q 2431 1156 2273 1281 
Q 2116 1406 1581 1522 
L 1381 1569 
Q 847 1681 609 1914 
Q 372 2147 372 2553 
Q 372 3047 722 3315 
Q 1072 3584 1716 3584 
Q 2034 3584 2315 3537 
Q 2597 3491 2834 3397 
z
" transform="scale(0.015625)"/>
        <path id="DejaVuSans-77" d="M 269 3500 
L 844 3500 
L 1563 769 
L 2278 3500 
L 2956 3500 
L 3675 769 
L 4391 3500 
L 4966 3500 
L 4050 0 
L 3372 0 
L 2619 2869 
L 1863 0 
L 1184 0 
L 269 3500 
z
" transform="scale(0.015625)"/>
       </defs>
       <use xlink:href="#DejaVuSans-68"/>
       <use xlink:href="#DejaVuSans-65" x="63.378906"/>
       <use xlink:href="#DejaVuSans-6c" x="124.902344"/>
       <use xlink:href="#DejaVuSans-6c" x="152.685547"/>
       <use xlink:href="#DejaVuSans-61" x="180.46875"/>
       <use xlink:href="#DejaVuSans-73" x="241.748047"/>
       <use xlink:href="#DejaVuSans-77" x="293.847656"/>
       <use xlink:href="#DejaVuSans-61" x="375.634766"/>
       <use xlink:href="#DejaVuSans-67" x="436.914062"/>
      </g>
     </g>
    </g>
    <g id="xtick_4">
     <g id="line2d_4">
      <path d="M 295.2 218.16 
L 177.594 100.554 
" clip-path="url(#p39f901e687)" style="fill: none; stroke: #b0b0b0; stroke-width: 0.8; stroke-linecap: square"/>
     </g>
     <g id="text_4">
      <!-- arc_easy -->
      <g transform="translate(136.745186 89.035811) scale(0.12 -0.12)">
       <defs>
        <path id="DejaVuSans-79" d="M 2059 -325 
Q 1816 -950 1584 -1140 
Q 1353 -1331 966 -1331 
L 506 -1331 
L 506 -850 
L 844 -850 
Q 1081 -850 1212 -737 
Q 1344 -625 1503 -206 
L 1606 56 
L 191 3500 
L 800 3500 
L 1894 763 
L 2988 3500 
L 3597 3500 
L 2059 -325 
z
" transform="scale(0.015625)"/>
       </defs>
       <use xlink:href="#DejaVuSans-61"/>
       <use xlink:href="#DejaVuSans-72" x="61.279297"/>
       <use xlink:href="#DejaVuSans-63" x="100.142578"/>
       <use xlink:href="#DejaVuSans-5f" x="155.123047"/>
       <use xlink:href="#DejaVuSans-65" x="205.123047"/>
       <use xlink:href="#DejaVuSans-61" x="266.646484"/>
       <use xlink:href="#DejaVuSans-73" x="327.925781"/>
       <use xlink:href="#DejaVuSans-79" x="380.025391"/>
      </g>
     </g>
    </g>
    <g id="xtick_5">
     <g id="line2d_5">
      <path d="M 295.2 218.16 
L 128.88 218.16 
" clip-path="url(#p39f901e687)" style="fill: none; stroke: #b0b0b0; stroke-width: 0.8; stroke-linecap: square"/>
     </g>
     <g id="text_5">
      <!-- piqa -->
      <g transform="translate(95.418125 221.47125) scale(0.12 -0.12)">
       <defs>
        <path id="DejaVuSans-69" d="M 603 3500 
L 1178 3500 
L 1178 0 
L 603 0 
L 603 3500 
z
M 603 4863 
L 1178 4863 
L 1178 4134 
L 603 4134 
L 603 4863 
z
" transform="scale(0.015625)"/>
       </defs>
       <use xlink:href="#DejaVuSans-70"/>
       <use xlink:href="#DejaVuSans-69" x="63.476562"/>
       <use xlink:href="#DejaVuSans-71" x="91.259766"/>
       <use xlink:href="#DejaVuSans-61" x="154.736328"/>
      </g>
     </g>
    </g>
    <g id="xtick_6">
     <g id="line2d_6">
      <path d="M 295.2 218.16 
L 177.594 335.766 
" clip-path="url(#p39f901e687)" style="fill: none; stroke: #b0b0b0; stroke-width: 0.8; stroke-linecap: square"/>
     </g>
     <g id="text_6">
      <!-- winogrande -->
      <g transform="translate(127.794874 353.572939) scale(0.12 -0.12)">
       <defs>
        <path id="DejaVuSans-64" d="M 2906 2969 
L 2906 4863 
L 3481 4863 
L 3481 0 
L 2906 0 
L 2906 525 
Q 2725 213 2448 61 
Q 2172 -91 1784 -91 
Q 1150 -91 751 415 
Q 353 922 353 1747 
Q 353 2572 751 3078 
Q 1150 3584 1784 3584 
Q 2172 3584 2448 3432 
Q 2725 3281 2906 2969 
z
M 947 1747 
Q 947 1113 1208 752 
Q 1469 391 1925 391 
Q 2381 391 2643 752 
Q 2906 1113 2906 1747 
Q 2906 2381 2643 2742 
Q 2381 3103 1925 3103 
Q 1469 3103 1208 2742 
Q 947 2381 947 1747 
z
" transform="scale(0.015625)"/>
       </defs>
       <use xlink:href="#DejaVuSans-77"/>
       <use xlink:href="#DejaVuSans-69" x="81.787109"/>
       <use xlink:href="#DejaVuSans-6e" x="109.570312"/>
       <use xlink:href="#DejaVuSans-6f" x="172.949219"/>
       <use xlink:href="#DejaVuSans-67" x="234.130859"/>
       <use xlink:href="#DejaVuSans-72" x="297.607422"/>
       <use xlink:href="#DejaVuSans-61" x="338.720703"/>
       <use xlink:href="#DejaVuSans-6e" x="400"/>
       <use xlink:href="#DejaVuSans-64" x="463.378906"/>
       <use xlink:href="#DejaVuSans-65" x="526.855469"/>
      </g>
     </g>
    </g>
    <g id="xtick_7">
     <g id="line2d_7">
      <path d="M 295.2 218.16 
L 295.2 384.48 
" clip-path="url(#p39f901e687)" style="fill: none; stroke: #b0b0b0; stroke-width: 0.8; stroke-linecap: square"/>
     </g>
     <g id="text_7">
      <!-- boolq -->
      <g transform="translate(278.5725 408.29125) scale(0.12 -0.12)">
       <use xlink:href="#DejaVuSans-62"/>
       <use xlink:href="#DejaVuSans-6f" x="63.476562"/>
       <use xlink:href="#DejaVuSans-6f" x="124.658203"/>
       <use xlink:href="#DejaVuSans-6c" x="185.839844"/>
       <use xlink:href="#DejaVuSans-71" x="213.623047"/>
      </g>
     </g>
    </g>
    <g id="xtick_8">
     <g id="line2d_8">
      <path d="M 295.2 218.16 
L 412.806 335.766 
" clip-path="url(#p39f901e687)" style="fill: none; stroke: #b0b0b0; stroke-width: 0.8; stroke-linecap: square"/>
     </g>
     <g id="text_8">
      <!-- siqa -->
      <g transform="translate(415.023251 353.572939) scale(0.12 -0.12)">
       <use xlink:href="#DejaVuSans-73"/>
       <use xlink:href="#DejaVuSans-69" x="52.099609"/>
       <use xlink:href="#DejaVuSans-71" x="79.882812"/>
       <use xlink:href="#DejaVuSans-61" x="143.359375"/>
      </g>
     </g>
    </g>
   </g>
   <g id="matplotlib.axis_2">
    <g id="ytick_1">
     <g id="line2d_9">
      <path d="M 331.703704 218.16 
C 331.703704 213.366378 330.759465 208.619367 328.925025 204.190637 
C 327.090585 199.761908 324.401619 195.737587 321.012016 192.347984 
C 317.622413 188.958381 313.598092 186.269415 309.169363 184.434975 
C 304.740633 182.600535 299.993622 181.656296 295.2 181.656296 
C 290.406378 181.656296 285.659367 182.600535 281.230637 184.434975 
C 276.801908 186.269415 272.777587 188.958381 269.387984 192.347984 
C 265.998381 195.737587 263.309415 199.761908 261.474975 204.190637 
C 259.640535 208.619367 258.696296 213.366378 258.696296 218.16 
C 258.696296 222.953622 259.640535 227.700633 261.474975 232.129363 
C 263.309415 236.558092 265.998381 240.582413 269.387984 243.972016 
C 272.777587 247.361619 276.801908 250.050585 281.230637 251.885025 
C 285.659367 253.719465 290.406378 254.663704 295.2 254.663704 
C 299.993622 254.663704 304.740633 253.719465 309.169363 251.885025 
C 313.598092 250.050585 317.622413 247.361619 321.012016 243.972016 
C 324.401619 240.582413 327.090585 236.558092 328.925025 232.129363 
C 330.759465 227.700633 331.703704 222.953622 331.703704 218.16 
" clip-path="url(#p39f901e687)" style="fill: none; stroke: #b0b0b0; stroke-width: 0.8; stroke-linecap: square"/>
     </g>
    </g>
    <g id="ytick_2">
     <g id="line2d_10">
      <path d="M 368.207407 218.16 
C 368.207407 208.572755 366.318929 199.078734 362.650049 190.221275 
C 358.98117 181.363815 353.603239 173.315173 346.824033 166.535967 
C 340.044827 159.756761 331.996185 154.37883 323.138725 150.709951 
C 314.281266 147.041071 304.787245 145.152593 295.2 145.152593 
C 285.612755 145.152593 276.118734 147.041071 267.261275 150.709951 
C 258.403815 154.37883 250.355173 159.756761 243.575967 166.535967 
C 236.796761 173.315173 231.41883 181.363815 227.749951 190.221275 
C 224.081071 199.078734 222.192593 208.572755 222.192593 218.16 
C 222.192593 227.747245 224.081071 237.241266 227.749951 246.098725 
C 231.41883 254.956185 236.796761 263.004827 243.575967 269.784033 
C 250.355173 276.563239 258.403815 281.94117 267.261275 285.610049 
C 276.118734 289.278929 285.612755 291.167407 295.2 291.167407 
C 304.787245 291.167407 314.281266 289.278929 323.138725 285.610049 
C 331.996185 281.94117 340.044827 276.563239 346.824033 269.784033 
C 353.603239 263.004827 358.98117 254.956185 362.650049 246.098725 
C 366.318929 237.241266 368.207407 227.747245 368.207407 218.16 
" clip-path="url(#p39f901e687)" style="fill: none; stroke: #b0b0b0; stroke-width: 0.8; stroke-linecap: square"/>
     </g>
    </g>
    <g id="ytick_3">
     <g id="line2d_11">
      <path d="M 404.711111 218.16 
C 404.711111 203.779133 401.878394 189.538101 396.375074 176.251912 
C 390.871754 162.965723 382.804858 150.89276 372.636049 140.723951 
C 362.46724 130.555142 350.394277 122.488246 337.108088 116.984926 
C 323.821899 111.481606 309.580867 108.648889 295.2 108.648889 
C 280.819133 108.648889 266.578101 111.481606 253.291912 116.984926 
C 240.005723 122.488246 227.93276 130.555142 217.763951 140.723951 
C 207.595142 150.89276 199.528246 162.965723 194.024926 176.251912 
C 188.521606 189.538101 185.688889 203.779133 185.688889 218.16 
C 185.688889 232.540867 188.521606 246.781899 194.024926 260.068088 
C 199.528246 273.354277 207.595142 285.42724 217.763951 295.596049 
C 227.93276 305.764858 240.005723 313.831754 253.291912 319.335074 
C 266.578101 324.838394 280.819133 327.671111 295.2 327.671111 
C 309.580867 327.671111 323.821899 324.838394 337.108088 319.335074 
C 350.394277 313.831754 362.46724 305.764858 372.636049 295.596049 
C 382.804858 285.42724 390.871754 273.354277 396.375074 260.068088 
C 401.878394 246.781899 404.711111 232.540867 404.711111 218.16 
" clip-path="url(#p39f901e687)" style="fill: none; stroke: #b0b0b0; stroke-width: 0.8; stroke-linecap: square"/>
     </g>
    </g>
    <g id="ytick_4">
     <g id="line2d_12">
      <path d="M 441.214815 218.16 
C 441.214815 198.98551 437.437858 179.997468 430.100099 162.282549 
C 422.762339 144.567631 412.006477 128.470346 398.448066 114.911934 
C 384.889654 101.353523 368.792369 90.597661 351.077451 83.259901 
C 333.362532 75.922142 314.37449 72.145185 295.2 72.145185 
C 276.02551 72.145185 257.037468 75.922142 239.322549 83.259901 
C 221.607631 90.597661 205.510346 101.353523 191.951934 114.911934 
C 178.393523 128.470346 167.637661 144.567631 160.299901 162.282549 
C 152.962142 179.997468 149.185185 198.98551 149.185185 218.16 
C 149.185185 237.33449 152.962142 256.322532 160.299901 274.037451 
C 167.637661 291.752369 178.393523 307.849654 191.951934 321.408066 
C 205.510346 334.966477 221.607631 345.722339 239.322549 353.060099 
C 257.037468 360.397858 276.02551 364.174815 295.2 364.174815 
C 314.37449 364.174815 333.362532 360.397858 351.077451 353.060099 
C 368.792369 345.722339 384.889654 334.966477 398.448066 321.408066 
C 412.006477 307.849654 422.762339 291.752369 430.100099 274.037451 
C 437.437858 256.322532 441.214815 237.33449 441.214815 218.16 
" clip-path="url(#p39f901e687)" style="fill: none; stroke: #b0b0b0; stroke-width: 0.8; stroke-linecap: square"/>
     </g>
    </g>
   </g>
   <g id="line2d_13">
    <path d="M 359.081481 218.16 
L 392.317712 121.042288 
L 295.2 94.96 
L 220.775353 143.735353 
L 201.202963 218.16 
L 219.699852 293.660148 
L 295.2 377.863704 
L 374.571951 297.531951 
L 359.081481 218.16 
" clip-path="url(#p39f901e687)" style="fill: none; stroke: #1f77b4; stroke-width: 2; stroke-linecap: square"/>
   </g>
   <g id="line2d_14">
    <path d="M 349.955556 218.16 
L 364.892444 148.467556 
L 295.2 94.047407 
L 210.020346 132.980346 
L 185.688889 218.16 
L 235.187062 278.172938 
L 295.2 364.174815 
L 394.576263 317.536263 
L 349.955556 218.16 
" clip-path="url(#p39f901e687)" style="fill: none; stroke: #ff7f0e; stroke-width: 2; stroke-linecap: square"/>
   </g>
   <g id="line2d_15">
    <path d="M 368.207407 218.16 
L 406.191671 107.168329 
L 295.2 100.435556 
L 217.33375 140.29375 
L 195.727407 218.16 
L 235.187062 278.172938 
L 295.2 350.02963 
L 369.732197 292.692197 
L 368.207407 218.16 
" clip-path="url(#p39f901e687)" style="fill: none; stroke: #2ca02c; stroke-width: 2; stroke-linecap: square"/>
   </g>
   <g id="line2d_16">
    <path d="M 322.577778 218.16 
L 386.832658 126.527342 
L 295.2 95.872593 
L 215.612949 138.572949 
L 205.765926 218.16 
L 194.533136 318.826864 
L 295.2 345.922963 
L 369.732197 292.692197 
L 322.577778 218.16 
" clip-path="url(#p39f901e687)" style="fill: none; stroke: #d62728; stroke-width: 2; stroke-linecap: square"/>
   </g>
   <g id="patch_7">
    <path d="M 461.52 218.16 
C 461.52 196.319058 457.217811 174.690491 448.859644 154.512092 
C 440.501477 134.333692 428.249878 115.997879 412.806 100.554 
C 397.362121 85.110122 379.026308 72.858523 358.847908 64.500356 
C 338.669509 56.142189 317.040942 51.84 295.2 51.84 
C 273.359058 51.84 251.730491 56.142189 231.552092 64.500356 
C 211.373692 72.858523 193.037879 85.110122 177.594 100.554 
C 162.150122 115.997879 149.898523 134.333692 141.540356 154.512092 
C 133.182189 174.690491 128.88 196.319058 128.88 218.16 
C 128.88 240.000942 133.182189 261.629509 141.540356 281.807908 
C 149.898523 301.986308 162.150122 320.322121 177.594 335.766 
C 193.037879 351.209878 211.373692 363.461477 231.552092 371.819644 
C 251.730491 380.177811 273.359058 384.48 295.2 384.48 
C 317.040942 384.48 338.669509 380.177811 358.847908 371.819644 
C 379.026308 363.461477 397.362121 351.209878 412.806 335.766 
C 428.249878 320.322121 440.501477 301.986308 448.859644 281.807908 
C 457.217811 261.629509 461.52 240.000942 461.52 218.16 
" style="fill: none; stroke: #000000; stroke-width: 0.8; stroke-linejoin: miter; stroke-linecap: square"/>
   </g>
   <g id="legend_1">
    <g id="patch_8">
     <path d="M 506.838563 86.401 
L 554.312 86.401 
Q 556.312 86.401 556.312 84.401 
L 556.312 25.576 
Q 556.312 23.576 554.312 23.576 
L 506.838563 23.576 
Q 504.838563 23.576 504.838563 25.576 
L 504.838563 84.401 
Q 504.838563 86.401 506.838563 86.401 
z
" style="fill: #ffffff; opacity: 0.8; stroke: #cccccc; stroke-linejoin: miter"/>
    </g>
    <g id="line2d_17">
     <path d="M 508.838563 31.674437 
L 518.838563 31.674437 
L 528.838563 31.674437 
" style="fill: none; stroke: #1f77b4; stroke-width: 2; stroke-linecap: square"/>
    </g>
    <g id="text_9">
     <!-- r_1 -->
     <g transform="translate(536.838563 35.174437) scale(0.1 -0.1)">
      <defs>
       <path id="DejaVuSans-31" d="M 794 531 
L 1825 531 
L 1825 4091 
L 703 3866 
L 703 4441 
L 1819 4666 
L 2450 4666 
L 2450 531 
L 3481 531 
L 3481 0 
L 794 0 
L 794 531 
z
" transform="scale(0.015625)"/>
      </defs>
      <use xlink:href="#DejaVuSans-72"/>
      <use xlink:href="#DejaVuSans-5f" x="41.113281"/>
      <use xlink:href="#DejaVuSans-31" x="91.113281"/>
     </g>
    </g>
    <g id="line2d_18">
     <path d="M 508.838563 46.630687 
L 518.838563 46.630687 
L 528.838563 46.630687 
" style="fill: none; stroke: #ff7f0e; stroke-width: 2; stroke-linecap: square"/>
    </g>
    <g id="text_10">
     <!-- r_2 -->
     <g transform="translate(536.838563 50.130687) scale(0.1 -0.1)">
      <defs>
       <path id="DejaVuSans-32" d="M 1228 531 
L 3431 531 
L 3431 0 
L 469 0 
L 469 531 
Q 828 903 1448 1529 
Q 2069 2156 2228 2338 
Q 2531 2678 2651 2914 
Q 2772 3150 2772 3378 
Q 2772 3750 2511 3984 
Q 2250 4219 1831 4219 
Q 1534 4219 1204 4116 
Q 875 4013 500 3803 
L 500 4441 
Q 881 4594 1212 4672 
Q 1544 4750 1819 4750 
Q 2544 4750 2975 4387 
Q 3406 4025 3406 3419 
Q 3406 3131 3298 2873 
Q 3191 2616 2906 2266 
Q 2828 2175 2409 1742 
Q 1991 1309 1228 531 
z
" transform="scale(0.015625)"/>
      </defs>
      <use xlink:href="#DejaVuSans-72"/>
      <use xlink:href="#DejaVuSans-5f" x="41.113281"/>
      <use xlink:href="#DejaVuSans-32" x="91.113281"/>
     </g>
    </g>
    <g id="line2d_19">
     <path d="M 508.838563 61.586937 
L 518.838563 61.586937 
L 528.838563 61.586937 
" style="fill: none; stroke: #2ca02c; stroke-width: 2; stroke-linecap: square"/>
    </g>
    <g id="text_11">
     <!-- 1_r -->
     <g transform="translate(536.838563 65.086937) scale(0.1 -0.1)">
      <use xlink:href="#DejaVuSans-31"/>
      <use xlink:href="#DejaVuSans-5f" x="63.623047"/>
      <use xlink:href="#DejaVuSans-72" x="113.623047"/>
     </g>
    </g>
    <g id="line2d_20">
     <path d="M 508.838563 76.543187 
L 518.838563 76.543187 
L 528.838563 76.543187 
" style="fill: none; stroke: #d62728; stroke-width: 2; stroke-linecap: square"/>
    </g>
    <g id="text_12">
     <!-- 2_r -->
     <g transform="translate(536.838563 80.043187) scale(0.1 -0.1)">
      <use xlink:href="#DejaVuSans-32"/>
      <use xlink:href="#DejaVuSans-5f" x="63.623047"/>
      <use xlink:href="#DejaVuSans-72" x="113.623047"/>
     </g>
    </g>
   </g>
  </g>
 </g>
 <defs>
  <clipPath id="p39f901e687">
   <path d="M 461.52 218.16 
C 461.52 196.319058 457.217811 174.690491 448.859644 154.512092 
C 440.501477 134.333692 428.249878 115.997879 412.806 100.554 
C 397.362121 85.110122 379.026308 72.858523 358.847908 64.500356 
C 338.669509 56.142189 317.040942 51.84 295.2 51.84 
C 273.359058 51.84 251.730491 56.142189 231.552092 64.500356 
C 211.373692 72.858523 193.037879 85.110122 177.594 100.554 
C 162.150122 115.997879 149.898523 134.333692 141.540356 154.512092 
C 133.182189 174.690491 128.88 196.319058 128.88 218.16 
C 128.88 240.000942 133.182189 261.629509 141.540356 281.807908 
C 149.898523 301.986308 162.150122 320.322121 177.594 335.766 
C 193.037879 351.209878 211.373692 363.461477 231.552092 371.819644 
C 251.730491 380.177811 273.359058 384.48 295.2 384.48 
C 317.040942 384.48 338.669509 380.177811 358.847908 371.819644 
C 379.026308 363.461477 397.362121 351.209878 412.806 335.766 
C 428.249878 320.322121 440.501477 301.986308 448.859644 281.807908 
C 457.217811 261.629509 461.52 240.000942 461.52 218.16 
M 295.2 218.16 
C 295.2 218.16 295.2 218.16 295.2 218.16 
C 295.2 218.16 295.2 218.16 295.2 218.16 
C 295.2 218.16 295.2 218.16 295.2 218.16 
C 295.2 218.16 295.2 218.16 295.2 218.16 
C 295.2 218.16 295.2 218.16 295.2 218.16 
C 295.2 218.16 295.2 218.16 295.2 218.16 
C 295.2 218.16 295.2 218.16 295.2 218.16 
C 295.2 218.16 295.2 218.16 295.2 218.16 
C 295.2 218.16 295.2 218.16 295.2 218.16 
C 295.2 218.16 295.2 218.16 295.2 218.16 
C 295.2 218.16 295.2 218.16 295.2 218.16 
C 295.2 218.16 295.2 218.16 295.2 218.16 
C 295.2 218.16 295.2 218.16 295.2 218.16 
C 295.2 218.16 295.2 218.16 295.2 218.16 
C 295.2 218.16 295.2 218.16 295.2 218.16 
C 295.2 218.16 295.2 218.16 295.2 218.16 
z
"/>
  </clipPath>
 </defs>
</svg>
